# Blender 4.5.1 LTS
# www.blender.org
mtllib piramide.mtl
o Cone.001
v -7.071068 -5.000000 -7.071068
v 7.071068 -5.000000 -7.071068
v 7.071068 -5.000000 7.071068
v -7.071068 -5.000000 7.071068
v 0.000000 5.000000 0.000000
v 0.000000 3.990000 0.000000
v 6.356890 -5.000000 -6.356890
v 6.356890 -5.000000 6.356890
v -6.356890 -5.000000 -6.356890
v -6.356890 -5.000000 6.356890
v 6.000000 -3.485282 1.000000
v 6.000000 -3.485282 -1.000000
v 6.000000 -4.495283 1.000000
v 6.356890 -5.000000 1.000000
v 6.356890 -5.000000 -1.000000
v 6.000000 -4.495283 -1.000000
v 7.071068 -5.000000 -1.000000
v 7.071068 -5.000000 1.000000
v 5.296229 -3.500000 1.000000
v 5.296229 -3.500000 -1.000000
v 6.000001 -4.495283 -1.000000
v 6.000001 -4.495283 1.000000
v 6.000001 -3.500000 -1.000000
v 6.000001 -3.500000 1.000000
vn -0.0000 0.5774 -0.8165
vn 0.8165 0.5774 -0.0000
vn -0.0000 -1.0000 -0.0000
vn -0.0000 -0.0000 -1.0000
vn -0.0000 0.5774 0.8165
vn -0.8165 0.5774 -0.0000
vn -0.0000 -0.5774 0.8165
vn -0.8165 -0.5774 -0.0000
vn -0.0000 -0.5774 -0.8165
vn 0.8165 -0.5774 -0.0000
vn 1.0000 -0.0000 -0.0000
vn -0.0000 -0.0000 1.0000
vn -0.5127 -0.6887 -0.5127
vn -0.5000 -0.7071 0.5000
vn 0.7071 -0.0000 -0.7071
vn -0.0000 1.0000 -0.0000
vn 0.7071 -0.0000 0.7071
vt 0.000000 0.745469
vt 0.150911 0.462343
vt 0.301822 0.745469
vt 0.603644 0.462343
vt 0.763827 0.556719
vt 0.739184 0.594469
vt 0.426840 0.231172
vt 0.213420 0.462343
vt 0.405285 0.231172
vt 0.440145 0.336636
vt 0.461758 0.324156
vt 0.451779 0.336636
vt 0.603644 0.745469
vt 0.301822 0.745469
vt 0.452733 0.462343
vt 0.426840 0.283126
vt 0.577751 0.000000
vt 0.728662 0.283126
vt 0.603643 0.983808
vt 0.739312 0.729277
vt 0.874981 0.983808
vt 0.135669 0.745470
vt 0.157011 0.957531
vt 0.114327 0.957531
vt 0.542676 1.000000
vt 0.271338 1.000000
vt 0.407007 0.745470
vt 0.728662 0.207823
vt 0.864331 0.000000
vt 1.000000 0.207823
vt 0.739440 0.594665
vt 0.444184 0.352905
vt 0.426840 0.352905
vt 0.426840 0.336636
vt 0.453235 0.324156
vt 0.444440 0.299395
vt 0.453235 0.307646
vt 0.426840 0.369174
vt 0.426840 0.352905
vt 0.444184 0.352905
vt 0.469525 0.299395
vt 0.426840 0.283126
vt 0.469525 0.283126
vt 0.765579 0.614685
vt 0.690772 0.729277
vt 0.865029 0.462343
vt 0.790222 0.576935
vt 0.000000 0.231172
vt 0.091619 0.131932
vt 0.102397 0.143606
vt 0.021555 0.231172
vt 0.132579 0.110914
vt 0.121801 0.099240
vt 0.213420 0.000000
vt 0.213420 0.023348
vt 0.213420 0.438995
vt 0.426840 0.324156
vt 0.114327 0.985710
vt 0.114327 0.985710
vt 0.114327 1.000000
vt 0.000000 1.000000
vt 0.157011 1.000000
vt 0.157011 0.985710
vt 0.756784 0.607949
vt 0.781427 0.570199
vt 0.781427 0.570199
vt 0.764084 0.556915
vt 0.426840 0.299395
s 0
usemtl Material.002
f 1/1/1 5/2/1 2/3/1
f 5/4/2 11/5/2 12/6/2
f 4/7/3 1/8/3 10/9/3
f 13/10/4 18/11/4 14/12/4
f 4/13/5 3/14/5 5/15/5
f 4/16/6 5/17/6 1/18/6
f 7/19/7 6/20/7 9/21/7
f 6/22/8 20/23/8 19/24/8
f 8/25/9 10/26/9 6/27/9
f 9/28/10 6/29/10 10/30/10
f 12/6/11 11/5/11 23/31/11
f 21/32/12 23/33/12 20/34/12
f 17/35/12 16/36/12 15/37/12
f 19/38/4 24/39/4 22/40/4
f 19/41/3 23/42/3 24/43/3
f 12/6/2 17/44/2 2/45/2
f 3/46/2 18/47/2 11/5/2
f 12/6/2 2/45/2 5/4/2
f 5/4/2 3/46/2 11/5/2
f 2/48/3 17/49/3 15/50/3
f 2/48/3 15/50/3 7/51/3
f 14/52/3 18/53/3 3/54/3
f 8/55/3 14/52/3 3/54/3
f 1/8/3 2/48/3 7/51/3
f 1/8/3 7/51/3 9/56/3
f 8/55/3 3/54/3 4/7/3
f 1/8/3 9/56/3 10/9/3
f 10/9/3 8/55/3 4/7/3
f 13/10/4 11/57/4 18/11/4
f 19/24/13 22/58/13 13/59/13
f 13/59/8 14/60/8 8/61/8
f 7/26/8 15/62/8 16/63/8
f 16/63/14 21/63/14 20/23/14
f 19/24/8 13/59/8 8/61/8
f 7/26/8 16/63/8 20/23/8
f 19/24/8 8/61/8 6/22/8
f 6/22/8 7/26/8 20/23/8
f 21/64/15 16/64/15 12/6/15
f 11/5/16 13/65/16 22/66/16
f 11/5/17 22/66/17 24/67/17
f 23/31/15 21/64/15 12/6/15
f 11/5/11 24/67/11 23/31/11
f 17/35/12 12/68/12 16/36/12
f 19/41/3 20/68/3 23/42/3
